<svg xmlns="http://www.w3.org/2000/svg" xml:space="preserve" width="5000px" height="3763px" version="1.1" style="shape-rendering:geometricPrecision; text-rendering:geometricPrecision; image-rendering:optimizeQuality; fill-rule:evenodd; clip-rule:evenodd" viewBox="0 0 5033 3786" xmlns:xlink="http://www.w3.org/1999/xlink">
  <path fill="red" d="M4872 663l-4710 0c-90,0 -162,73 -162,162l0 2800c0,89 72,161 162,161l4710 0c89,0 161,-72 161,-161l0 -2800c0,-89 -72,-162 -161,-162zm-162 2800l-4387 0 0 -2476 4387 0 0 2476z"/>
  <path fill="red" d="M759 2387l929 0c89,0 161,-73 161,-162 0,-90 -72,-162 -161,-162l-929 0c-90,0 -162,72 -162,162 0,89 72,162 162,162z"/>
  <path fill="red" d="M3346 2387l303 0 0 302c0,90 72,162 161,162 90,0 162,-72 162,-162l0 -302 303 0c89,0 161,-73 161,-162 0,-90 -72,-162 -161,-162l-303 0 0 -303c0,-89 -72,-161 -162,-161 -89,0 -161,72 -161,161l0 303 -303 0c-89,0 -162,72 -162,162 0,89 73,162 162,162l0 0z"/>
  <path fill="red" d="M759 323l929 0c89,0 161,-72 161,-161 0,-90 -72,-162 -161,-162l-929 0c-90,0 -162,72 -162,162 0,89 72,161 162,161z"/>
  <path fill="red" d="M3346 323l929 0c89,0 161,-72 161,-161 0,-90 -72,-162 -161,-162l-929 0c-89,0 -162,72 -162,162 0,89 73,161 162,161z"/>
</svg>
