<svg xmlns="http://www.w3.org/2000/svg" xml:space="preserve" width="5000px" height="5415px" version="1.1" style="shape-rendering:geometricPrecision; text-rendering:geometricPrecision; image-rendering:optimizeQuality; fill-rule:evenodd; clip-rule:evenodd" viewBox="0 0 5469 5923" xmlns:xlink="http://www.w3.org/1999/xlink">
   <path fill="red" d="M4257 3306l0 -883 843 843c42,42 97,63 153,63 55,0 111,-21 153,-63 84,-85 84,-222 0,-306l-1149 -1149 0 -131 0 -1035c0,-356 -311,-645 -692,-645l-1660 0c-382,0 -693,289 -693,645l0 1035 0 131 -1149 1149c-84,84 -84,221 0,306 43,42 98,63 153,63 56,0 111,-21 154,-63l842 -843 0 883 -1149 1149c-84,84 -84,221 0,306 43,42 98,63 153,63 56,0 111,-21 154,-63l842 -843 0 721 0 639c0,356 311,645 693,645l1660 0c381,0 692,-289 692,-645l0 -639 0 -721 843 843c42,42 97,63 153,63 55,0 111,-21 153,-63 84,-85 84,-222 0,-306l-1149 -1149zm-433 89l0 1027 -2179 0 0 -1027c0,0 0,0 0,0l0 -1494c0,0 0,-1 0,-1l0 -3 2179 0 0 3c0,0 0,1 0,1l0 1494c0,0 0,0 0,0zm-1919 -2962l1660 0c140,0 259,97 259,212l0 819 -2179 0 0 -819c0,-115 119,-212 260,-212zm1660 5057l-1660 0c-141,0 -260,-97 -260,-212l0 -423 2179 0 0 423c0,115 -119,212 -259,212l0 0z"/>
</svg>
