<svg xmlns="http://www.w3.org/2000/svg" xml:space="preserve" width="100px" height="100px" version="1.1" style="shape-rendering:geometricPrecision; text-rendering:geometricPrecision; image-rendering:optimizeQuality; fill-rule:evenodd; clip-rule:evenodd"
viewBox="0 0 1000 1000" xmlns:xlink="http://www.w3.org/1999/xlink">
   <path fill="#33CC33" d="M500 0c276,0 500,224 500,500 0,276 -224,500 -500,500 -276,0 -500,-224 -500,-500 0,-276 224,-500 500,-500zm0 59c243,0 441,198 441,441 0,243 -198,441 -441,441 -243,0 -441,-198 -441,-441 0,-243 198,-441 441,-441z"/>
   <path fill="#33CC33" d="M620 500c0,66 -54,120 -120,120 -67,0 -120,-54 -120,-120 0,-67 53,-120 120,-120 66,0 120,53 120,120l0 0z"/>
   <path fill="#33CC33" d="M677 134c-90,-44 -196,-56 -299,-24 -32,10 -62,24 -90,40 293,49 126,145 155,216 18,-7 36,-10 55,-10 1,0 1,0 2,0 0,0 1,0 1,0 2,0 4,0 6,0 47,3 88,27 112,63 169,-104 180,-212 58,-285l0 0 0 0 0 0z"/>
   <path fill="#33CC33" d="M643 524c-7,40 -30,78 -69,101 -21,13 -44,19 -68,20 3,201 90,266 216,198 115,-74 186,-203 186,-341 -193,226 -189,33 -265,22l0 0 0 0z"/>
   <path fill="#33CC33" d="M397 601c-1,-1 -2,-2 -2,-3 -3,-3 -6,-6 -8,-9 -1,-1 -2,-2 -3,-3 -2,-3 -4,-6 -5,-9 -1,-1 -2,-3 -3,-4 -2,-3 -3,-6 -5,-8 0,-2 -1,-4 -2,-5 -1,-3 -3,-6 -4,-9 0,-2 -1,-4 -1,-6 -2,-3 -3,-6 -3,-9 -1,-2 -1,-3 -2,-5 0,-4 -1,-7 -1,-11 -1,-1 -1,-3 -1,-4 -1,-6 -1,-11 -1,-16 0,-6 0,-11 1,-17 0,-2 0,-3 1,-5 0,-4 1,-8 2,-11 0,-2 1,-4 1,-6 1,-3 3,-7 4,-11 1,-1 1,-3 1,-4 3,-5 5,-10 7,-15 -173,-101 -273,-60 -280,83 4,142 82,266 197,335 -95,-282 68,-179 118,-238 0,0 -1,0 -1,0 -3,-4 -7,-7 -10,-10l0 0 0 0 0 0 0 0z"/>
</svg>
