<svg xmlns="http://www.w3.org/2000/svg" xml:space="preserve" width="5000px" height="3750px" version="1.1" style="shape-rendering:geometricPrecision; text-rendering:geometricPrecision; image-rendering:optimizeQuality; fill-rule:evenodd; clip-rule:evenodd" viewBox="0 0 4040 3030" xmlns:xlink="http://www.w3.org/1999/xlink">
  <path fill="#FFAA00" d="M355 1378c-36,46 -355,452 -355,726 0,232 189,421 421,421 232,0 421,-189 421,-421 0,-274 -319,-680 -355,-726 -32,-40 -100,-40 -132,0z"/>
  <path fill="#FFAA00" d="M4031 2740l-570 -1141 11 -21c41,-83 63,-177 63,-269 0,-159 -64,-314 -176,-426l-592 -591c-79,-80 -185,-124 -297,-124l-158 0c-157,0 -298,87 -371,225l-635 -381c-13,-8 -28,-12 -43,-12l-1010 0c-32,0 -61,18 -76,47l-168 336c-13,26 -12,57 3,82 16,25 43,40 72,40l1070 0 556 347 -18 36c-13,27 -11,59 6,85 90,135 107,305 47,456l-55 139c-11,26 -8,55 8,78l336 505c16,23 42,37 70,37l32 0 398 796c14,28 43,46 75,46l1010 0c13,0 25,-3 36,-8 0,0 1,0 2,-1l337 -168c41,-21 58,-71 37,-113zm-1422 -1814c186,0 337,151 337,337 0,185 -151,336 -337,336 -185,0 -336,-151 -336,-336 0,-186 151,-337 336,-337zm52 1936l-354 -709 282 -93 52 47c140,129 221,312 221,502 0,47 37,84 84,84 47,0 84,-37 84,-84 0,-230 -96,-450 -261,-610l140 -46 560 909 -808 0z"/>
</svg>
