<svg xmlns="http://www.w3.org/2000/svg" xml:space="preserve" width="5000px" height="3691px" version="1.1" style="shape-rendering:geometricPrecision; text-rendering:geometricPrecision; image-rendering:optimizeQuality; fill-rule:evenodd; clip-rule:evenodd" viewBox="0 0 4877 3601" xmlns:xlink="http://www.w3.org/1999/xlink">
  <path fill="red" d="M2439 0c-993,0 -1801,808 -1801,1800 0,993 808,1801 1801,1801 992,0 1800,-808 1800,-1801 0,-992 -808,-1800 -1800,-1800zm0 3289c-821,0 -1489,-668 -1489,-1489 0,-820 668,-1488 1489,-1488 820,0 1488,668 1488,1488 0,821 -668,1489 -1488,1489z"/>
  <path fill="red" d="M934 296c61,-61 61,-160 0,-221 -61,-61 -160,-61 -221,0 -951,951 -951,2499 0,3451 31,30 71,45 111,45 40,0 80,-15 110,-45 61,-61 61,-160 0,-221 -829,-830 -829,-2180 0,-3009l0 0z"/>
  <path fill="red" d="M4164 75c-61,-61 -160,-61 -221,0 -61,61 -61,160 0,221 830,829 830,2179 0,3009 -61,61 -61,160 0,221 31,30 71,45 110,45 40,0 80,-15 111,-45 951,-952 951,-2500 0,-3451l0 0z"/>
  <path fill="red" d="M2439 2279c86,0 156,-70 156,-156l0 -1329c0,-86 -70,-156 -156,-156 -87,0 -156,70 -156,156l0 1329c0,86 69,156 156,156z"/>
  <circle fill="red" cx="2439" cy="2613" r="194"/>
</svg>
