<svg xmlns="http://www.w3.org/2000/svg" xml:space="preserve" width="5000px" height="2897px" version="1.1" style="shape-rendering:geometricPrecision; text-rendering:geometricPrecision; image-rendering:optimizeQuality; fill-rule:evenodd; clip-rule:evenodd" viewBox="0 0 4670 2706" xmlns:xlink="http://www.w3.org/1999/xlink">
  <path fill="#33CC33" d="M1550 458c-446,0 -446,674 -446,895 0,221 0,895 446,895 314,0 694,-399 694,-895 0,-496 -380,-895 -694,-895zm0 1490c-67,0 -146,-156 -146,-595 0,-439 79,-595 146,-595 135,0 393,251 393,595 0,344 -258,595 -393,595z"/>
  <path fill="#33CC33" d="M1019 417l-802 -401c-74,-37 -164,-7 -201,67 -37,74 -7,164 67,201l802 401c21,11 44,16 67,16 55,0 108,-30 134,-83 37,-74 7,-164 -67,-201z"/>
  <path fill="#33CC33" d="M885 2021l-802 401c-74,37 -104,127 -67,201 26,53 79,83 134,83 23,0 46,-5 67,-16l802 -401c74,-37 104,-127 67,-201 -37,-74 -127,-104 -201,-67z"/>
  <path fill="#33CC33" d="M150 1503l669 0c83,0 151,-67 151,-150 0,-83 -68,-150 -151,-150l-669 0c-83,0 -150,67 -150,150 0,83 67,150 150,150z"/>
  <path fill="#33CC33" d="M3120 458c-314,0 -693,399 -693,895 0,496 379,895 693,895 446,0 446,-673 446,-895 0,-221 0,-895 -446,-895zm0 1490c-135,0 -393,-251 -393,-595 0,-344 258,-595 393,-595 67,0 146,156 146,595 0,439 -79,595 -146,595z"/>
  <path fill="#33CC33" d="M4587 2422l-802 -401c-74,-37 -164,-7 -201,67 -37,74 -7,164 67,201l802 401c21,11 44,16 67,16 55,0 108,-30 134,-83 37,-74 7,-164 -67,-201l0 0z"/>
  <path fill="#33CC33" d="M3718 701c23,0 46,-5 67,-16l802 -401c74,-37 104,-127 67,-201 -37,-74 -127,-104 -201,-67l-802 401c-74,37 -104,127 -67,201 26,53 79,83 134,83z"/>
  <path fill="#33CC33" d="M4520 1203l-669 0c-83,0 -150,67 -150,150 0,83 67,150 150,150l669 0c83,0 150,-67 150,-150 0,-83 -67,-150 -150,-150z"/>
</svg>
