<svg xmlns="http://www.w3.org/2000/svg" xml:space="preserve" width="5000px" height="3750px" version="1.1" style="shape-rendering:geometricPrecision; text-rendering:geometricPrecision; image-rendering:optimizeQuality; fill-rule:evenodd; clip-rule:evenodd" viewBox="0 0 4001 3001" xmlns:xlink="http://www.w3.org/1999/xlink">
  <path fill="#0095FF" d="M3420 2470l-1259 504c-5,2 -9,4 -13,5 -50,15 -100,22 -149,22 -105,0 -208,-33 -296,-98 -125,-92 -198,-233 -202,-387l-1 -1c-112,-673 -112,-1356 0,-2029l1 0c4,-155 77,-295 202,-388 129,-95 292,-123 445,-75 4,1 8,3 13,4l1259 505c348,110 581,429 581,794l0 349c0,366 -233,684 -581,795zm248 -1144c0,-220 -142,-413 -353,-477 -5,-2 -9,-3 -13,-5l-1258 -504c-49,-14 -101,-4 -142,27 -44,31 -68,80 -68,134 0,9 -1,18 -2,27l-3 13c-106,637 -106,1283 0,1919l3 13c1,9 2,19 2,28 0,53 24,102 68,134 41,31 93,40 142,27l1258 -504c4,-2 8,-4 13,-5 211,-65 353,-257 353,-478l0 -349zm0 0z" data-original="#000000" data-old_color="#000000"/>
  <path fill="#0095FF" d="M167 584l833 0c92,0 167,75 167,167 0,92 -75,166 -167,166l-833 0c-92,0 -167,-74 -167,-166 0,-92 75,-167 167,-167l0 0zm0 0z" data-original="#000000" data-old_color="#000000"/>
  <path fill="#0095FF" d="M167 1334l833 0c92,0 167,75 167,167 0,92 -75,167 -167,167l-833 0c-92,0 -167,-75 -167,-167 0,-92 75,-167 167,-167l0 0zm0 0z" data-original="#000000" data-old_color="#000000"/>
  <path fill="#0095FF" d="M167 2084l833 0c92,0 167,75 167,167 0,92 -75,167 -167,167l-833 0c-92,0 -167,-75 -167,-167 0,-92 75,-167 167,-167l0 0zm0 0z" data-original="#000000" data-old_color="#000000"/>
</svg>
