<svg xmlns="http://www.w3.org/2000/svg" xml:space="preserve" width="5000px" height="3741px" version="1.1" style="shape-rendering:geometricPrecision; text-rendering:geometricPrecision; image-rendering:optimizeQuality; fill-rule:evenodd; clip-rule:evenodd" viewBox="0 0 3709 2776" xmlns:xlink="http://www.w3.org/1999/xlink">
   <path fill="#FFAA00" d="M3699 1249l-179 -406c-20,-44 -63,-72 -110,-72l-298 0c-66,0 -120,54 -120,121l0 189 -93 0 0 -156c0,-66 -54,-120 -120,-120l-321 0 0 -329c0,-66 -54,-120 -121,-120l-592 0 0 -115 592 0c67,0 121,-54 121,-121 0,-66 -54,-120 -121,-120l-1425 0c-67,0 -121,54 -121,120 0,67 54,121 121,121l592 0 0 115 -592 0c-67,0 -121,54 -121,120l0 100 -264 0c-67,0 -121,54 -121,121l0 646 -165 0 0 -646c0,-67 -54,-121 -121,-121 -66,0 -120,54 -120,121l0 1533c0,67 54,121 120,121 67,0 121,-54 121,-121l0 -646 165 0 0 646c0,67 54,121 121,121l468 0 475 397c22,19 49,28 78,28l1231 0c66,0 120,-53 120,-120l0 -328 93 0 0 190c0,66 54,120 120,120l298 0c47,0 90,-28 110,-72l179 -406c7,-16 10,-32 10,-49l0 -813c0,-17 -3,-33 -10,-49l0 0zm-230 837l-138 311 -99 0 0 -190c0,-66 -53,-120 -120,-120l-333 0c-67,0 -121,54 -121,120l0 329 -1067 0 -475 -398c-22,-18 -49,-28 -77,-28l-392 0 0 -1293 265 0c66,0 120,-54 120,-120l0 -101 1185 0 0 329c0,67 54,121 120,121l321 0 0 156c0,66 54,120 121,120l333 0c67,0 120,-54 120,-120l0 -190 99 0 138 311 0 763 0 0z"/>
</svg>
