<svg xmlns="http://www.w3.org/2000/svg" xml:space="preserve" width="5000px" height="3750px" version="1.1" style="shape-rendering:geometricPrecision; text-rendering:geometricPrecision; image-rendering:optimizeQuality; fill-rule:evenodd; clip-rule:evenodd" viewBox="0 0 3820 2865" xmlns:xlink="http://www.w3.org/1999/xlink">
  <path fill="#33CC33" d="M3264 2358l-1201 481c-4,2 -9,4 -13,5 -47,14 -94,21 -142,21 -100,0 -198,-32 -282,-93 -119,-89 -189,-223 -193,-370l-1 -1c-107,-643 -107,-1294 0,-1937l1 0c4,-148 74,-282 193,-370 123,-91 278,-118 424,-72 4,1 9,2 13,4l1202 482c332,105 555,409 555,758l0 333c0,349 -223,653 -556,759l0 0zm237 -1092c0,-211 -135,-394 -337,-456 -4,-1 -8,-3 -12,-4l-1201 -482c-47,-12 -96,-3 -136,26 -41,30 -64,77 -64,128 0,9 -1,18 -2,26l-3 13c-101,608 -101,1224 0,1832l3 12c1,9 2,18 2,26 0,51 23,98 64,128 40,30 89,39 136,26l1201 -481c4,-2 8,-3 12,-5 202,-62 337,-245 337,-456l0 -333zm0 0z" data-original="#000000" data-old_color="#000000"/>
  <path fill="#33CC33" d="M100 728l796 -318c81,-33 174,7 207,88 32,82 -7,174 -89,207l-796 319c-19,7 -39,11 -59,11 -63,0 -123,-38 -148,-100 -32,-82 7,-174 89,-207l0 0zm0 0z" data-original="#000000" data-old_color="#000000"/>
  <path fill="#33CC33" d="M100 1444l796 -318c81,-33 174,7 207,88 32,82 -7,175 -89,207l-796 319c-19,7 -39,11 -59,11 -63,0 -123,-38 -148,-100 -32,-82 7,-174 89,-207l0 0zm0 0z" data-original="#000000" data-old_color="#000000"/>
  <path fill="#33CC33" d="M100 2160l796 -318c81,-32 174,7 207,89 32,81 -7,174 -89,207l-796 318c-19,8 -39,11 -59,11 -63,0 -123,-38 -148,-100 -32,-81 7,-174 89,-207l0 0zm0 0z" data-original="#000000" data-old_color="#000000"/>
</svg>
