<svg xmlns="http://www.w3.org/2000/svg" xml:space="preserve" width="89px" height="40px" version="1.1" style="shape-rendering:geometricPrecision; text-rendering:geometricPrecision; image-rendering:optimizeQuality; fill-rule:evenodd; clip-rule:evenodd" viewBox="0 0 121 54" xmlns:xlink="http://www.w3.org/1999/xlink">
  <path fill="red" d="M117 22l-9 -9 -32 15 -8 -10 -17 0 0 -6 9 0 0 -6 -26 0 0 6 9 0 0 6 -13 0 0 -8 -21 -10 -1 2 -8 17 24 11 0 0 0 24 55 0 28 -34 0 0 5 5 5 -3zm4 22c0,-1 -1,-2 -1,-3 0,0 -1,-2 -2,-4l-3 -6 -2 6c-1,0 -2,3 -3,4 0,1 0,2 0,3 0,2 0,3 1,5 1,1 3,1 4,1 2,0 3,0 4,-1 1,-1 2,-3 2,-5zm-97 -26l0 5 -16 -8 3 -6 13 6 0 3zm52 30l-46 0 0 -16 0 -8 13 0 2 0 6 0 14 0 6 8 3 4 5 -2 15 -8 -18 22z"/>
</svg>
