<svg xmlns="http://www.w3.org/2000/svg" xml:space="preserve" width="100px" height="110px" version="1.1" style="shape-rendering:geometricPrecision; text-rendering:geometricPrecision; image-rendering:optimizeQuality; fill-rule:evenodd; clip-rule:evenodd"
viewBox="0 0 33 37" xmlns:xlink="http://www.w3.org/1999/xlink">
  <path fill="#FFAA00" d="M32 9l0 0 -8 -8 -2 2 5 4c-2,1 -4,3 -4,5 0,3 3,5 5,5 1,0 2,0 2,0l0 14c0,2 -1,2 -2,2 -1,0 -2,0 -2,-2l0 -9c0,-2 -1,-4 -4,-4l-2 0 0 -14c0,-2 -1,-4 -4,-4l-12 0c-2,0 -4,2 -4,4l0 33 20 0 0 -16 3 0 0 10c0,3 3,6 5,6 3,0 5,-3 5,-6l0 -19c0,-1 0,-2 -1,-3l0 0zm-16 5l-12 0 0 -10 12 0 0 10zm12 0c-1,0 -2,-1 -2,-2 0,-1 1,-2 2,-2 1,0 2,1 2,2 0,1 -1,2 -2,2z" data-original="#000000" data-old_color="#000000"/>
</svg>
