<svg xmlns="http://www.w3.org/2000/svg" xml:space="preserve" width="5000px" height="5424px" version="1.1" style="shape-rendering:geometricPrecision; text-rendering:geometricPrecision; image-rendering:optimizeQuality; fill-rule:evenodd; clip-rule:evenodd" viewBox="0 0 2291 2477" xmlns:xlink="http://www.w3.org/1999/xlink">
  <path fill="#33CC33" d="M41 1156l1115 -1115c41,-41 82,-41 124,-41 62,21 82,83 82,124l0 433 805 0c83,0 124,62 124,124l0 1115c0,62 -41,123 -124,123l-805 0 0 434c0,62 -20,103 -82,124 0,0 -21,0 -42,0 -20,0 -62,0 -82,-42l-1115 -1114c-20,-21 -41,-41 -41,-83 0,-41 21,-62 41,-82l0 0 0 0zm1073 887l0 -247c0,-83 62,-124 124,-124l805 0 0 -846 -805 0c-62,0 -124,-62 -124,-145l0 -248 -804 805 804 805z"/>
</svg>
