<svg xmlns="http://www.w3.org/2000/svg" xml:space="preserve" width="5000px" height="5424px" version="1.1" style="shape-rendering:geometricPrecision; text-rendering:geometricPrecision; image-rendering:optimizeQuality; fill-rule:evenodd; clip-rule:evenodd" viewBox="0 0 2291 2477" xmlns:xlink="http://www.w3.org/1999/xlink">
  <path fill="#33CC33" d="M2250 1156l-1115 -1115c-41,-41 -82,-41 -124,-41 -62,21 -82,83 -82,124l0 433 -805 0c-83,0 -124,62 -124,124l0 1115c0,62 41,123 124,123l805 0 0 434c0,62 20,103 82,124 0,0 21,0 42,0 20,0 62,0 82,-42l1115 -1114c20,-21 41,-41 41,-83 0,-41 -21,-61 -41,-82l0 0 0 0zm-1074 887l0 -247c0,-83 -61,-124 -123,-124l-805 0 0 -846 805 0c62,0 123,-62 123,-145l0 -248 805 805 -805 805z"/>
</svg>
