<svg xmlns="http://www.w3.org/2000/svg" xml:space="preserve" width="5000px" height="2585px" version="1.1" style="shape-rendering:geometricPrecision; text-rendering:geometricPrecision; image-rendering:optimizeQuality; fill-rule:evenodd; clip-rule:evenodd" viewBox="0 0 3500 1809" xmlns:xlink="http://www.w3.org/1999/xlink">
  <path fill="#33CC33" d="M1583 412l-587 0 0 -320c0,-37 -22,-71 -57,-85 -34,-14 -73,-6 -100,20l-812 812c-17,18 -27,41 -27,65 0,25 10,48 27,65l813 813c17,17 41,27 64,27 12,0 24,-3 36,-7 34,-14 56,-48 56,-85l0 -320 587 0c51,0 92,-41 92,-92l0 -801c0,-51 -41,-92 -92,-92l0 0zm-92 801l-587 0c-50,0 -91,41 -91,92l0 190 -591 -591 591 -591 0 191c0,50 41,91 91,91l587 0 0 618 0 0 0 0z"/>
  <path fill="#33CC33" d="M3473 839l-813 -812c-26,-26 -66,-34 -100,-20 -34,14 -56,48 -56,85l0 320 -587 0c-51,0 -92,41 -92,92l0 801c0,51 41,92 92,92l587 0 0 320c0,37 22,71 56,85 12,4 23,7 35,7 24,0 48,-10 65,-27l813 -813c17,-17 27,-40 27,-65 0,-24 -10,-47 -27,-65l0 0zm-786 656l0 -190c0,-51 -41,-92 -92,-92l-586 0 0 -618 586 0c51,0 92,-41 92,-91l0 -191 591 591 -591 591z"/>
</svg>
