<svg xmlns="http://www.w3.org/2000/svg" xml:space="preserve" width="760px" height="341px" version="1.1" style="shape-rendering:geometricPrecision; text-rendering:geometricPrecision; image-rendering:optimizeQuality; fill-rule:evenodd; clip-rule:evenodd" viewBox="0 0 52266 23441" xmlns:xlink="http://www.w3.org/1999/xlink">
  <path fill="white" d="M5782 23404l-161 -243 -166 243 -203 0 232 -338 -212 -296 209 0 157 227 154 -227 198 0 -218 307 225 327 -215 0zm30361 -19021l52 937 -701 2 16 -939 633 0zm-35915 18543l1208 0 -227 442 -1209 0 228 -442zm2321 -2960l410 -466 1219 330c-170,194 -337,389 -502,585l-1127 -449zm3625 -3779l478 -414 1031 574 -551 488 -958 -648zm4620 -3654l499 -317 916 688 -535 484 -880 -855zm5353 -3127l590 -256 676 724 -602 376 -664 -844zm6082 -2495l592 -169 480 812 -740 247 -332 -890zm6479 -1659l587 -100 392 802 -798 197 -181 -899zm3401 -179c-847,106 -1686,231 -2515,375l-95 -194c1076,-189 2169,-346 3275,-469l3 0c868,-96 1732,-170 2592,-223l-4 208c-845,52 -1694,125 -2547,219l35 249 -722 90 -22 -255zm3260 -511l0 0 -4 208 0 0 4 -208zm-6727 1061l-2540 559 84 219 -610 155 -71 -223c-818,213 -1600,435 -2366,674l-107 -180c1799,-565 3658,-1038 5569,-1408l41 204zm-6415 1678c-757,254 -1505,527 -2265,826l70 207c-173,68 -367,145 -539,215l-70 -208c-768,314 -1544,653 -2308,1011l-152 -162c1662,-781 3396,-1477 5193,-2079l71 190zm-5973 2465c-738,363 -1459,740 -2144,1125l116 192c-161,91 -321,184 -481,276l-117 -194c-673,389 -1312,778 -1933,1180l-173 -130c1455,-948 2991,-1824 4599,-2619l133 170zm-5329 3088c-589,400 -1167,816 -1746,1258l206 205c-149,114 -297,227 -444,342l-205 -205c-559,438 -1126,907 -1678,1387l-196 -110c1223,-1068 2531,-2078 3916,-3021l147 144zm-4577 3617c-358,327 -706,654 -1035,979 -121,119 -241,239 -360,359l189 157c-131,133 -261,265 -389,399l-189 -157c-399,416 -786,839 -1161,1269l-223 -60c628,-724 1290,-1429 1986,-2114 327,-322 661,-640 1003,-952l179 120zm-3565 3737c-287,348 -567,700 -838,1056l254 80c-119,156 -236,313 -352,471l-254 -79c-255,347 -502,697 -742,1051l-251 0c609,-909 1270,-1797 1980,-2660l203 81zm33513 -15694l0 0 4 207 0 0 -4 -207zm0 0c2293,-100 4500,-48 6702,149l-66 203c-1111,-100 -2169,-156 -3306,-181l-6 290c-218,-5 -505,-10 -723,-13l14 -287c-864,-7 -1735,8 -2611,46l-4 -207zm-31517 17407c12,34 19,69 19,106l0 819c0,38 -7,73 -19,107 -13,33 -32,64 -57,92l0 -1 -1 1c-53,57 -116,86 -190,86l-1081 0c-38,0 -73,-8 -106,-23l0 0c-31,-14 -59,-34 -84,-60l-3 -3c-25,-28 -43,-58 -56,-93 -12,-33 -18,-68 -18,-106l0 -819c0,-37 6,-72 18,-105 12,-34 31,-65 56,-92l0 0 1 0c53,-57 117,-86 192,-86l1081 0c36,0 71,7 105,23 30,13 58,33 82,59l4 4c25,28 44,58 57,91zm270 1131c25,-68 38,-142 38,-222l0 -804c0,-80 -13,-154 -38,-221 -26,-67 -64,-129 -115,-186 -50,-56 -105,-98 -164,-125 -58,-27 -122,-40 -191,-40l-1178 0c-70,0 -134,13 -192,40 -59,27 -114,69 -164,125l0 0 0 0c-51,57 -89,118 -114,185 -25,67 -37,141 -37,222l0 804c0,83 12,157 37,225 25,67 63,129 114,185l0 0c50,56 105,97 164,124 58,27 123,40 192,40l1178 0c69,0 133,-13 191,-40 57,-26 110,-65 159,-118l4 -5c52,-59 90,-122 116,-189zm636 -3850l0 1951 289 0 0 -1951 -289 0zm4425 -2225c23,-63 35,-132 35,-206 0,-72 -12,-140 -35,-204 -23,-64 -59,-124 -106,-182l0 0c-45,-54 -94,-94 -147,-120 -52,-26 -108,-39 -170,-39l-1417 0 0 274 1343 0c16,0 33,2 50,5 17,4 33,9 47,16l0 0 2 1c15,7 28,15 41,25 13,9 24,20 35,32l0 0c10,12 20,24 28,38l0 0c8,13 15,27 20,40 19,61 17,160 -20,222l-3 3c-20,23 -43,42 -68,55 -3,2 -6,4 -10,6 -30,14 -63,21 -97,21l-1008 0c-307,0 -483,166 -483,665l0 548 1875 0 0 -274 -1490 0c-53,0 -96,-43 -96,-96l0 -257c0,-33 6,-64 17,-94 10,-27 25,-52 44,-75 2,-2 4,-4 6,-7 21,-23 45,-41 71,-55 2,-1 5,-3 7,-4 30,-14 63,-21 96,-21l1010 0c194,0 338,-122 423,-317zm4280 -2302c23,-60 35,-125 35,-196 0,-247 -61,-361 -124,-399 -30,-58 -29,-95 10,-139 62,-37 114,-158 114,-394 0,-71 -12,-136 -35,-195 -23,-59 -58,-115 -105,-166 -46,-50 -96,-87 -149,-112 -51,-23 -108,-35 -169,-35l-1520 0 0 344 1447 0c137,0 241,41 246,214 0,195 -95,214 -246,214l-1447 0 0 358 1447 0c173,0 241,66 241,257 0,171 -97,220 -241,220l-1447 0 0 343 1520 0c61,0 118,-11 169,-35 53,-24 102,-61 147,-110l2 -2c47,-51 82,-107 105,-167zm4158 -2667l0 -440c0,-54 3,-97 57,-97l139 0 0 -289 -139 0c-54,0 -57,-43 -57,-96l0 -1029 -329 0 0 1125 -96 0 -955 0 0 0 1051 -733 0 -392 -1581 1154 -1 261 1477 0c3,-1 6,-1 9,-1 53,0 96,43 96,97l0 440 329 0zm11812 -4315c0,31 -5,61 -16,90l-2 6c-11,30 -29,58 -51,83l0 -1c-21,24 -45,42 -70,56l-7 3c-30,14 -62,22 -97,22l-1030 0c-17,0 -34,-2 -50,-6 -17,-3 -33,-9 -48,-16l0 0 -3 -1c-14,-8 -28,-16 -40,-25l0 0c-13,-10 -25,-21 -34,-32l0 0c-11,-13 -21,-26 -29,-39l0 0c-8,-14 -15,-29 -21,-44l1 0c-6,-16 -10,-31 -13,-46l0 0c-3,-18 -4,-35 -4,-50l0 -248c0,-54 43,-97 96,-97l1121 0c236,0 297,112 297,345zm255 262c23,-64 34,-133 34,-207 0,-238 -49,-682 -467,-682l-1240 0c-108,0 -107,-144 -79,-215 10,-27 25,-52 44,-75 2,-2 4,-4 6,-7 23,-25 49,-45 78,-59l0 0c30,-14 62,-21 96,-21l1439 0 0 -344 -1498 0c-70,0 -134,13 -193,40 -58,27 -113,69 -163,125l0 0 0 0c-51,57 -89,118 -113,185 -25,67 -38,141 -38,222l0 804c0,83 13,158 38,225 25,67 63,129 114,185l-1 1c51,55 105,96 165,123 58,27 122,40 191,40l1163 0c61,0 118,-12 169,-38 52,-25 101,-65 146,-117l2 -2c48,-58 83,-118 107,-183zm4247 -423l535 0 1486 -1569 2 -381 -2153 0 0 344 1463 0 0 0c17,0 35,5 51,15 45,28 58,87 30,132l-1414 1459zm8314 -519c3,18 4,34 4,51 0,30 -9,122 -19,151l-2 6c-12,29 -29,57 -52,82l0 0c-21,23 -44,42 -69,55 -3,1 -5,2 -7,3 -30,15 -63,22 -97,22l-1061 0c-33,0 -66,-7 -96,-22l0 0c-28,-14 -54,-33 -78,-59l1 0 -1 -1c-22,-24 -38,-52 -50,-82 -11,-30 -13,-123 -13,-155 0,-33 6,-64 17,-94 10,-27 25,-52 45,-75 1,-2 3,-5 5,-7 21,-23 45,-42 71,-55 2,-1 5,-3 7,-4 31,-14 63,-21 96,-21l1061 0c16,0 32,2 50,5 13,3 26,7 38,12 3,1 7,3 11,5 14,7 28,15 40,25l0 0 0 0c14,10 26,21 36,32l0 0c11,12 20,25 28,37l-1 0c7,12 13,24 19,36l2 5c7,16 11,32 15,48zm-4 -828c3,17 5,81 5,97 0,33 -6,65 -18,95 -11,28 -27,54 -48,78l-2 3c-20,23 -43,41 -68,55 -3,2 -7,4 -10,5 -30,15 -63,22 -97,22l-1061 0c-33,0 -65,-7 -95,-22l0 0 -1 0c-27,-13 -52,-32 -75,-56l-3 -4c-22,-24 -38,-52 -50,-82 -11,-30 -17,-62 -17,-94 0,-33 6,-111 17,-140 10,-27 25,-52 45,-75 2,-3 3,-5 5,-7 22,-23 46,-42 72,-55 2,-2 4,-3 6,-4 30,-14 63,-22 96,-22l1061 0c16,0 33,2 50,6 16,4 31,9 46,15l0 0 3 1c14,8 28,16 41,25 13,10 24,21 35,33l0 0c10,12 20,24 28,37l0 1c7,11 13,22 18,34l2 6c7,15 12,32 15,48zm259 1152c23,-60 35,-125 35,-195 0,-101 -58,-331 -147,-385l0 0c-62,-36 -63,-128 0,-165 138,-75 147,-283 147,-383 0,-71 -12,-136 -35,-195 -23,-59 -58,-115 -104,-166 -47,-50 -96,-87 -149,-111 -52,-24 -109,-36 -171,-36l-1205 0c-62,0 -119,12 -171,36 -53,24 -102,61 -149,111 -46,51 -81,107 -104,166 -23,59 -35,124 -35,195 0,100 57,328 146,382 50,39 49,119 4,166 -150,139 -150,281 -150,385 0,70 12,135 35,195 23,60 58,116 105,167l0 0c46,50 95,88 148,112 52,23 109,35 171,35l1205 0c62,0 119,-12 171,-35 52,-24 101,-61 147,-110l1 -2c47,-51 82,-107 105,-167zm-18978 1675c23,64 35,133 35,206 0,73 -8,306 -31,369 -23,64 -59,124 -106,182l0 0c-45,54 -94,94 -147,121 -52,25 -108,38 -170,38l-1672 0 8 -352 1598 0c16,0 33,-2 50,-6 17,-4 33,-9 47,-15l0 0 2 -1c14,-7 28,-16 41,-25 13,-10 24,-21 35,-32l0 -1c10,-11 20,-24 28,-37l0 0c8,-14 15,-27 20,-41 19,-61 6,-245 -32,-307l-3 -4c-20,-23 -43,-41 -68,-55 -3,-2 -6,-3 -10,-5 -30,-15 -62,-22 -97,-22l-1600 0c-4,-343 -8,-195 -8,-694l0 -291 2122 0 0 339 -1757 -3c-111,0 -93,320 63,320l1229 0c194,0 338,121 423,316zm24117 -1734c0,-31 5,-61 16,-90l2 -6c11,-30 29,-57 51,-82l0 0c21,-24 45,-42 70,-55l7 -4c30,-14 62,-21 97,-21l1031 0c16,0 33,2 49,5 17,4 33,9 49,16l0 1 2 1c14,7 28,15 40,24l0 1c13,10 25,20 34,31l0 0c11,13 21,26 29,39l0 0c8,14 15,29 21,45l0 0c5,15 10,31 12,46l0 0c3,17 5,34 5,49l0 249c0,53 -44,96 -97,96l-1121 0c-236,0 -297,-111 -297,-345zm-254 -262c-24,64 -35,133 -35,207 0,239 49,682 467,682l1240 0c108,0 107,144 80,215 -11,27 -25,52 -45,75 -2,2 -4,5 -6,7 -23,26 -49,45 -78,59l0 0c-30,15 -62,22 -95,22l-1440 0 0 344 1498 0c70,0 134,-14 193,-41 58,-27 113,-69 163,-125l0 0 0 0c51,-56 89,-118 113,-185 25,-67 38,-141 38,-222l0 -804c0,-82 -13,-157 -38,-225 -25,-67 -63,-129 -113,-185l0 0c-50,-56 -105,-97 -164,-124 -58,-27 -122,-40 -192,-40l-1163 0c-61,0 -118,13 -169,38 -52,26 -101,65 -146,117l-2 3c-48,57 -83,118 -106,182zm-35875 16388l0 -448c0,-8 0,-13 -1,-15 -2,-13 -14,-20 -35,-20l-262 0c-13,0 -22,3 -26,7 -5,5 -8,14 -8,28l0 448 -176 0 1 -634 169 0 0 69c20,-46 57,-69 109,-69l285 0c34,0 61,5 79,17 17,12 29,31 35,59 3,16 5,32 5,48l0 510 -175 0zm-875 0l1 -634 176 0 -1 634 -176 0zm2 -710l0 -190 177 0 0 190 -177 0zm-368 710l0 -448c0,-3 0,-6 0,-8 0,-3 -1,-5 -1,-8 -3,-12 -15,-19 -35,-19l-189 0c-13,0 -22,3 -27,7 -5,5 -7,13 -7,25l-1 451 -175 0 -1 -448c1,-3 1,-6 0,-8 0,-3 0,-5 0,-8 -3,-12 -14,-19 -34,-19l-190 0c-13,0 -21,3 -26,7 -5,5 -8,14 -8,28l0 448 -176 0 1 -634 170 0 -1 69c20,-46 57,-69 110,-69l212 0c32,0 57,5 75,16 18,11 30,28 36,53 14,-25 30,-42 47,-53 16,-11 38,-16 65,-16l212 0c34,0 60,6 78,18 18,12 31,32 36,59 4,15 5,31 5,47l0 510 -176 0zm-1468 37l325 -937 115 0 -325 937 -115 0zm-546 -37l1 -634 170 0 0 69c10,-25 24,-42 42,-53 17,-11 40,-16 67,-16l185 0 -1 151 -253 0c-13,0 -22,3 -27,7 -5,5 -8,14 -9,28l0 448 -175 0zm-727 0c-42,0 -75,-7 -97,-22 -22,-15 -36,-38 -42,-69 -4,-16 -5,-35 -5,-57l0 -553c1,-50 11,-87 32,-112 21,-24 59,-36 113,-36l399 0c43,0 75,8 96,23 22,15 36,38 43,70 1,8 3,17 3,26 1,8 1,18 2,29l0 553c-1,50 -11,88 -32,112 -21,24 -58,36 -113,36l-399 0zm365 -634c0,-5 0,-8 -1,-12 0,-3 0,-6 -1,-10 -2,-11 -7,-18 -14,-22 -7,-5 -19,-7 -35,-7l-235 0c-16,0 -28,4 -34,11 -6,7 -9,20 -9,38l-1 424c0,9 0,15 1,18 3,17 17,25 42,25l234 0c20,0 34,-3 41,-10 7,-7 10,-18 10,-33l2 -422zm-1236 634c-42,0 -75,-7 -97,-22 -22,-15 -36,-38 -42,-69 -4,-16 -5,-35 -5,-57l1 -553c0,-50 10,-87 31,-112 21,-24 59,-36 113,-36l399 0c43,0 75,8 96,23 22,15 36,38 43,70 2,8 3,17 3,26 1,8 1,18 2,29l0 553c-1,50 -11,88 -32,112 -21,24 -58,36 -113,36l-399 0zm365 -634c0,-5 0,-8 -1,-12 0,-3 0,-6 -1,-10 -2,-11 -7,-18 -14,-22 -7,-5 -19,-7 -35,-7l-234 0c-17,0 -29,4 -35,11 -6,7 -9,20 -9,38l-1 424c0,9 0,15 1,18 3,17 17,25 42,25l234 0c20,0 34,-3 41,-10 7,-7 10,-18 10,-33l2 -422zm-1236 634c-42,0 -75,-7 -97,-22 -22,-15 -36,-38 -42,-69 -4,-16 -5,-35 -5,-57l1 -553c0,-50 11,-87 31,-112 21,-24 59,-36 113,-36l399 0c43,0 75,8 96,23 22,15 36,38 43,70 2,8 3,17 3,26 1,8 2,18 2,29l0 553c0,50 -11,88 -32,112 -21,24 -58,36 -113,36l-399 0zm365 -634c0,-5 0,-8 -1,-12 0,-3 0,-6 -1,-10 -2,-11 -7,-18 -14,-22 -7,-5 -19,-7 -35,-7l-234 0c-17,0 -29,4 -34,11 -7,7 -10,20 -10,38l-1 424c0,9 0,15 1,18 4,17 17,25 42,25l234 0c20,0 34,-3 41,-10 7,-7 10,-18 11,-33l1 -422zm-875 634l1 -687 -116 0 0 -162 295 0 -1 849 -179 0z"/>
  <path fill="#E21F25" d="M52012 1469c23,-52 113,-66 167,-52 54,15 104,82 81,135l-1814 4114c-23,53 -111,71 -164,57 -54,-15 -107,-87 -84,-140l1814 -4114zm-1717 4543c-2424,-639 -4727,-1028 -7123,-1328l-142 566c2777,350 4480,696 7126,1318l139 -556zm-5969 -5933c13,-55 102,-83 159,-78 57,5 120,61 107,115l-1034 4254c-13,54 -98,87 -155,82 -57,-5 -124,-65 -111,-120l1034 -4253zm788 79c14,-55 103,-82 160,-76 57,6 119,63 104,118l-1114 4246c-14,54 -99,85 -156,79 -57,-6 -122,-67 -108,-122l1114 -4245zm784 92c15,-55 104,-80 161,-73 57,7 117,65 102,120l-1193 4236c-16,54 -101,84 -158,77 -57,-7 -121,-69 -106,-124l1194 -4236zm780 105c16,-54 106,-78 162,-70 57,8 116,67 100,122l-1273 4226c-16,54 -102,83 -158,74 -57,-8 -120,-71 -104,-126l1273 -4226zm776 119c18,-54 107,-76 163,-67 56,9 114,69 97,123l-1351 4215c-18,53 -104,81 -160,72 -56,-9 -117,-74 -100,-128l1351 -4215zm772 133c18,-54 108,-75 164,-65 56,10 112,72 94,126l-1429 4200c-19,54 -105,80 -161,70 -56,-10 -116,-76 -98,-130l1430 -4201zm767 146c20,-54 110,-74 165,-63 56,11 111,74 92,128l-1508 4186c-19,54 -106,78 -161,67 -56,-11 -114,-78 -95,-132l1507 -4186zm763 159c20,-53 110,-72 165,-60 55,12 109,76 89,130l-1585 4170c-20,53 -107,76 -162,64 -55,-12 -112,-80 -92,-134l1585 -4170zm757 173c21,-54 112,-70 166,-58 55,13 108,78 86,132l-1661 4152c-21,54 -109,75 -163,62 -55,-13 -111,-82 -89,-136l1661 -4152zm752 185c22,-53 113,-68 167,-54 54,14 106,80 83,133l-1737 4134c-23,53 -110,73 -164,59 -55,-14 -109,-84 -87,-138l1738 -4134z"/>
</svg>
