<svg xmlns="http://www.w3.org/2000/svg" xml:space="preserve" width="2480px" height="1866px" version="1.0" style="shape-rendering:geometricPrecision; text-rendering:geometricPrecision; image-rendering:optimizeQuality; fill-rule:evenodd; clip-rule:evenodd" viewBox="0 0 2480000 1865550" xmlns:xlink="http://www.w3.org/1999/xlink">
 <defs>
  <style type="text/css">
   <![CDATA[
    .fil0 {fill:#FEFEFE}
   ]]>
  </style>
 </defs>
   <path class="fil0" d="M2400306 326852l-2320612 0c-44022,0 -79694,35681 -79694,79694l0 1379310c0,44012 35671,79694 79694,79694l2320612 -1c44022,0 79694,-35681 79694,-79694l0 -1379310c0,-44012 -35681,-79693 -79694,-79693zm-79694 1379299l-2161225 0 0 -1219912 2161225 0 0 1219912z"/>
   <path class="fil0" d="M373860 1175879l457592 0c44022,0 79694,-35681 79694,-79694 0,-44012 -35671,-79694 -79694,-79694l-457592 0c-44022,0 -79694,35681 -79694,79694 0,44013 35672,79694 79694,79694z"/>
   <path class="fil0" d="M1648548 1175879l149113 0 0 149113c0,44012 35671,79694 79694,79694 44023,0 79694,-35681 79694,-79694l0 -149113 149091 0c44022,0 79694,-35681 79694,-79694 0,-44012 -35670,-79694 -79694,-79694l-149092 0 0 -149092c0,-44012 -35670,-79694 -79694,-79694 -44022,0 -79694,35681 -79694,79694l0 149092 -149112 0c-44022,0 -79694,35681 -79694,79694 0,44013 35672,79694 79694,79694z"/>
   <path class="fil0" d="M373860 159388l457592 0c44022,0 79694,-35681 79694,-79694 0,-44013 -35671,-79694 -79694,-79694l-457592 0c-44022,0 -79694,35681 -79694,79694 0,44013 35672,79694 79694,79694z"/>
   <path class="fil0" d="M1648548 159388l457592 0c44022,0 79694,-35681 79694,-79694 0,-44013 -35670,-79694 -79694,-79694l-457592 0c-44022,0 -79694,35681 -79694,79694 0,44013 35672,79694 79694,79694z"/>
</svg>
