<svg xmlns="http://www.w3.org/2000/svg" xml:space="preserve" width="5000px" height="4936px" version="1.1" style="shape-rendering:geometricPrecision; text-rendering:geometricPrecision; image-rendering:optimizeQuality; fill-rule:evenodd; clip-rule:evenodd" viewBox="0 0 325 321" xmlns:xlink="http://www.w3.org/1999/xlink">
 <defs>
  <style type="text/css">
   <![CDATA[
    .fil0 {fill:#6A777D}
   ]]>
  </style>
 </defs>
  <path class="fil0" d="M163 294c-16,0 -31,-6 -42,-19 -5,-6 -14,-6 -20,0 -20,26 -61,26 -82,0 -12,-13 -30,8 -10,27 27,26 74,25 102,0 15,13 34,19 52,19 18,0 37,-6 51,-19 29,25 75,26 102,0 21,-19 2,-40 -9,-27 -21,26 -62,26 -83,0 -5,-6 -14,-6 -19,0 -11,13 -27,19 -42,19zm18 -88l0 -189c0,-9 -8,-17 -18,-17 -9,0 -17,8 -17,17l0 189c-12,6 -20,19 -20,33 0,20 17,36 37,36 20,0 37,-16 37,-36 0,-14 -8,-27 -19,-33zm24 -185l53 0c6,0 12,-5 12,-10 0,-6 -6,-11 -12,-11l-53 0c-7,0 -12,5 -12,11 0,5 5,10 12,10zm53 125l-53 0c-7,0 -12,4 -12,10 0,6 5,10 12,10l53 0c6,0 12,-4 12,-10 0,-6 -6,-10 -12,-10zm0 -49l-53 0c-7,0 -12,5 -12,11 0,5 5,10 12,10l53 0c6,0 12,-5 12,-10 0,-6 -6,-11 -12,-11zm0 -48l-53 0c-7,0 -12,4 -12,10 0,6 5,10 12,10l53 0c6,0 12,-4 12,-10 0,-6 -6,-10 -12,-10zm-141 157c-5,-3 -12,-2 -16,3 -20,25 -61,26 -82,0 -12,-14 -30,8 -10,27 25,25 68,25 97,4 0,0 0,-1 0,-1 0,-12 4,-24 11,-33l0 0zm102 34c29,21 72,21 97,-4 21,-19 2,-41 -9,-27 -21,26 -62,25 -83,0 -4,-5 -10,-6 -15,-3 6,9 10,21 10,33 0,0 0,1 0,1l0 0z"/>
</svg>
