<svg xmlns="http://www.w3.org/2000/svg" xml:space="preserve" width="2290px" height="2480px" version="1.0" style="shape-rendering:geometricPrecision; text-rendering:geometricPrecision; image-rendering:optimizeQuality; fill-rule:evenodd; clip-rule:evenodd" viewBox="0 0 2289999 2479934" xmlns:xlink="http://www.w3.org/1999/xlink">
 <defs>
  <style type="text/css">
   <![CDATA[
    .fil0 {fill:#FEFEFE}
   ]]>
  </style>
 </defs>
  <path class="fil0" d="M1782462 1384097l0 -369547 352812 352825c17702,17701 40890,26546 64090,26546 23188,0 46389,-8845 64090,-26546 35392,-35392 35392,-92777 0,-128157l-480993 -481006 0 -54605 1 -433543c0,-148916 -130102,-270064 -290003,-270064l-694918 0c-159900,0 -290003,121148 -290003,270064l0 433543 0 54605 -480994 481006c-35391,35391 -35391,92777 0,128157 17702,17690 40902,26546 64091,26546 23188,0 46388,-8845 64090,-26546l352812 -352825 0 369559 -480994 481018c-35392,35391 -35392,92777 12,128168 17690,17702 40890,26547 64079,26547 23188,0 46388,-8845 64090,-26547l352812 -352836 0 301844 0 267563c0,148916 130102,270064 290003,270064l694920 4c159900,0 290003,-121148 290003,-270065l0 -267576 0 -301844 352812 352837c17702,17702 40890,26547 64090,26547 23188,0 46389,-8845 64079,-26547 35404,-35392 35404,-92765 11,-128169l-480992 -481020zm-181252 37581l0 429989 -912420 0 0 -429989c0,-24 0,-37 0,-61l0 -625801c0,-37 0,-85 0,-121l0 -1462 912420 -1 0 1462c0,37 0,85 0,121l0 625801c0,13 0,37 0,62zm-803669 -1240426l694918 0c58956,0 108751,40673 108751,88814l0 342916 -912420 -2 0 -342916c0,-48139 49795,-88812 108751,-88812zm694918 2117405l-694918 0c-58956,0 -108751,-40673 -108751,-88814l0 -176925 912420 0 0 176938c0,48140 -49795,88801 -108751,88801z"/>
</svg>
