<svg xmlns="http://www.w3.org/2000/svg" xml:space="preserve" width="1356px" height="1356px" version="1.0" style="shape-rendering:geometricPrecision; text-rendering:geometricPrecision; image-rendering:optimizeQuality; fill-rule:evenodd; clip-rule:evenodd" viewBox="0 0 1356000 1356000" xmlns:xlink="http://www.w3.org/1999/xlink">
 <defs>
  <style type="text/css">
   <![CDATA[
    .fil0 {fill:#FEFEFE}
   ]]>
  </style>
 </defs>
  <path class="fil0" d="M678000 0c374449,0 678000,303551 678000,678000 0,374449 -303551,678000 -678000,678000 -374449,0 -678000,-303551 -678000,-678000 0,-374449 303551,-678000 678000,-678000zm0 80007c330262,0 597993,267731 597993,597993 0,330262 -267731,597993 -597993,597993 -330262,0 -597993,-267731 -597993,-597993 0,-330262 267731,-597993 597993,-597993z"/>
  <path class="fil0" d="M841249 677999c0,90033 -73216,163249 -163249,163249 -90221,0 -163272,-73216 -163272,-163249 0,-90177 73051,-163246 163272,-163246 90033,0 163249,73070 163249,163246z"/>
  <path class="fil0" d="M918291 181787c-121908,-59912 -265555,-75829 -405599,-33065 -44038,13504 -84555,32427 -122402,55011 397364,66566 170722,195781 210769,293246 23674,-9738 49102,-14329 74694,-14164 804,0 1419,-165 2222,-165 454,0 948,0 1276,0 3006,165 5888,328 8750,494 63268,3169 118551,36197 151761,85485 228862,-141919 243360,-287998 78526,-386842l3 0z"/>
  <path class="fil0" d="M871265 709933c-8585,55177 -40701,106153 -92361,137162 -28928,17502 -60718,26518 -92156,27834 3004,272085 121574,360284 292424,268582 155589,-100906 252067,-275110 252067,-463290 -261768,306590 -255733,45626 -359976,29712l3 0 -1 0z"/>
  <path class="fil0" d="M538119 814217c-950,-1153 -1916,-2244 -3004,-3338 -3523,-3832 -6861,-7638 -10192,-11794 -1257,-1588 -2387,-3173 -3500,-4757 -2840,-3666 -5556,-7453 -7926,-11451 -1256,-1916 -2572,-3976 -3666,-5884 -2244,-3789 -4303,-7620 -6341,-11595 -987,-2203 -2078,-4447 -3190,-6692 -1732,-3784 -3316,-7760 -4945,-11898 -781,-2370 -1707,-4776 -2531,-7148 -1419,-4134 -2513,-8275 -3663,-12557 -600,-2410 -1257,-4760 -1916,-7332 -928,-4591 -1751,-9348 -2372,-13998 -309,-2203 -803,-4426 -966,-6669 -760,-6958 -1253,-13958 -1253,-21124 0,-7782 659,-15402 1418,-22893 329,-2347 663,-4592 1094,-6835 822,-5191 1772,-10438 2903,-15523 601,-2410 1257,-4801 1916,-7167 1423,-5246 3173,-10332 4920,-15257 763,-1913 1422,-3829 2203,-5741 2719,-6834 5725,-13505 9227,-20011 -234613,-137329 -371279,-81385 -380814,111880 6341,193430 111736,361271 267160,455054 -127793,-382107 92652,-242538 160080,-323758 0,0 -165,0 -165,0 -5088,-4303 -9842,-8750 -14477,-13505l0 -6 0 -1z"/>
</svg>
