<svg xmlns="http://www.w3.org/2000/svg" xmlns:xlink="http://www.w3.org/1999/xlink" version="1.1" x="0px" y="0px" viewBox="0 0 511.999 511.999" style="enable-background:new 0 0 511.999 511.999;" xml:space="preserve" width="512px" height="512px">
	<path d="M45,238.666c-4.604,5.76-45,57.26-45,92C0,360.073,23.917,384,53.333,384s53.333-23.927,53.333-53.333     c0-34.74-40.396-86.24-45-92C57.625,233.604,49.042,233.604,45,238.666z" fill="#FFFFFF"/>
	<path d="M510.875,411.229l-72.271-144.552l1.354-2.729c5.271-10.552,8.042-22.344,8.042-34.104     c0-20.073-8.146-39.729-22.333-53.938l-74.958-74.948C340.625,90.885,327.25,85.333,313,85.333h-19.958     c-19.931,0-37.763,10.949-47.04,28.507l-80.522-48.319c-1.646-1-3.542-1.521-5.479-1.521H32c-4.042,0-7.729,2.281-9.542,5.896     L1.125,112.562c-1.646,3.302-1.479,7.229,0.458,10.375C3.542,126.083,6.979,128,10.667,128h135.604l70.457,44.023l-2.27,4.539     c-1.708,3.427-1.458,7.5,0.667,10.688c11.417,17.125,13.667,38.74,6.021,57.833l-7.042,17.625     c-1.313,3.26-0.917,6.958,1.021,9.875l42.667,64c1.979,2.969,5.313,4.75,8.875,4.75h4.073l50.385,100.771     c1.813,3.615,5.5,5.896,9.542,5.896h128c1.615,0,3.107-0.415,4.478-1.056c0.094-0.043,0.199-0.022,0.293-0.069l42.667-21.333     C511.375,422.906,513.5,416.5,510.875,411.229z M330.667,181.333c23.521,0,42.667,19.135,42.667,42.667     s-19.146,42.667-42.667,42.667S288,247.531,288,224S307.146,181.333,330.667,181.333z M337.25,426.666l-44.878-89.773     l35.71-11.901l6.584,6.039c17.792,16.313,28,39.51,28,63.635c0,5.896,4.771,10.667,10.667,10.667     c5.896,0,10.667-4.771,10.667-10.667c0-29.16-12.15-57.064-33.079-77.286l17.767-5.922l70.891,115.208H337.25z" fill="#FFFFFF"/>
</svg>
