<!-- Author: Leonardo Neris | THE GHOST DASHBOARD LOGO IS A REGISTERED TRADEMARK AND SHOULD NOT BE EDITED -->
<svg xmlns="http://www.w3.org/2000/svg" xml:space="preserve" width="5000px" height="4346px" version="1.1" style="shape-rendering:geometricPrecision; text-rendering:geometricPrecision; image-rendering:optimizeQuality; fill-rule:evenodd; clip-rule:evenodd" viewBox="0 0 5000 4347" xmlns:xlink="http://www.w3.org/1999/xlink">
  <path fill="#36434A" d="M1583 2379c-57,-106 -151,-172 -223,-398 -63,-199 -77,-361 -59,-585 -100,69 -380,503 -400,711 -17,174 100,287 234,317 140,31 320,-2 448,-45l0 0zm-1583 -236c-15,1635 1579,2529 2882,2094l1 0c291,-97 567,-259 808,-495 59,-59 112,-118 167,-189 1,-1 2,-3 3,-4 78,-103 146,-198 204,-288l0 0 0 0c259,-399 503,-830 751,-1239l-603 0 -74 0 -581 -2c6,52 9,103 9,156 0,720 -578,1312 -1317,1376 -40,4 -80,6 -122,6l0 0 -2 0 -5 0 0 0 -5 0 -1 0 0 0c-78,0 -156,-6 -231,-17l0 0c-704,-97 -1245,-672 -1245,-1368 0,-763 651,-1382 1455,-1382l8 0c45,-5 92,-7 140,-9l324 3c502,8 840,23 1113,17l1112 11 209 -798 -2350 -14 -578 -1c-419,-3 -839,188 -1160,402 -53,35 -106,77 -149,117 -52,50 -96,74 -142,125 -320,355 -615,838 -621,1499l0 0zm1757 245c192,168 1000,190 911,-514 -20,-158 -77,-309 -146,-410 -116,357 -281,552 -523,744l-242 180 0 0z"/>
</svg>
