<svg xmlns="http://www.w3.org/2000/svg" xml:space="preserve" width="2480px" height="1831px" version="1.0" style="shape-rendering:geometricPrecision; text-rendering:geometricPrecision; image-rendering:optimizeQuality; fill-rule:evenodd; clip-rule:evenodd" viewBox="0 0 2480007 1830885" xmlns:xlink="http://www.w3.org/1999/xlink">
 <defs>
  <style type="text/css">
   <![CDATA[
    .fil0 {fill:#FEFEFE}
   ]]>
  </style>
 </defs>
   <path class="fil0" d="M1239995 1c-504775,0 -915441,410667 -915441,915452 0,504775 410667,915432 915441,915432 504774,0 915441,-410657 915441,-915432 11,-504774 -410667,-915452 -915441,-915452zm0 1672196c-417268,0 -756744,-339465 -756744,-756733 0,-417280 339476,-756755 756744,-756755 417269,0 756744,339475 756744,756755 10,417259 -339464,756733 -756744,756733z"/>
   <path class="fil0" d="M474988 150447c30988,-30988 30988,-81232 0,-112221 -30999,-30988 -81232,-30988 -112220,0 -483690,483700 -483690,1270755 0,1754465 15498,15499 35801,23244 56115,23244 20303,0 40616,-7745 56105,-23244 30999,-30988 30999,-81221 11,-112209 -421830,-421839 -421830,-1108207 -11,-1530035z"/>
   <path class="fil0" d="M2117222 38226c-30999,-30988 -81232,-30988 -112221,0 -30988,30989 -30988,81233 0,112221 421839,421828 421839,1108196 0,1530035 -30988,30988 -30988,81232 0,112209 15499,15490 35813,23244 56116,23244 20303,0 40615,-7745 56115,-23244 483700,-483721 483700,-1270765 -10,-1754465z"/>
   <path class="fil0" d="M1239995 1158812c43833,0 79349,-35527 79349,-79349l0 -675840c0,-43822 -35516,-79349 -79349,-79349 -43832,0 -79348,35527 -79348,79349l0 675840c-1,43821 35527,79349 79348,79349z"/>
   <circle class="fil0" cx="1239995" cy="1328586" r="98698"/>
</svg>
