<svg xmlns="http://www.w3.org/2000/svg" xml:space="preserve" width="2480px" height="1437px" version="1.0" style="shape-rendering:geometricPrecision; text-rendering:geometricPrecision; image-rendering:optimizeQuality; fill-rule:evenodd; clip-rule:evenodd" viewBox="0 0 2479986 1437051" xmlns:xlink="http://www.w3.org/1999/xlink">
 <defs>
  <style type="text/css">
   <![CDATA[
    .fil0 {fill:#FEFEFE}
   ]]>
  </style>
 </defs>
   <path class="fil0" d="M823197 243096c-236846,0 -236846,357841 -236846,475425 0,117583 0,475424 236846,475424 166760,0 368180,-212078 368180,-475424 0,-263347 -201410,-475425 -368180,-475425zm0 791464c-35734,0 -77460,-82774 -77460,-316039 0,-233266 41727,-316040 77460,-316040 71480,0 208796,133459 208796,316040 0,182580 -137316,316039 -208796,316039z"/>
   <path class="fil0" d="M541086 221303l-425729 -212865c-39389,-19701 -87247,-3719 -106926,35639 -19680,39368 -3730,87236 35628,106915l425739 212865c11443,5717 23610,8426 35585,8426 29231,0 57379,-16150 71341,-44065 19678,-39357 3719,-87236 -35638,-106915z"/>
   <path class="fil0" d="M469808 1073184l-425728 212865c-39368,19690 -55327,67558 -35639,106926 13963,27936 42109,44076 71341,44076 11975,0 24143,-2709 35575,-8426l425729 -212855c39368,-19689 55327,-67547 35638,-106926 -19679,-39379 -67558,-55327 -106916,-35660z"/>
   <path class="fil0" d="M79708 798213l355471 0c44022,0 79693,-35681 79693,-79692 0,-44012 -35671,-79693 -79693,-79693l-355471 0c-44022,0 -79693,35681 -79693,79693 0,44011 35682,79692 79693,79692z"/>
   <path class="fil0" d="M1656792 243096c-166770,0 -368190,212078 -368190,475425 0,263346 201420,475424 368190,475424 236835,0 236846,-357830 236857,-475424 0,-117584 0,-475425 -236857,-475425zm0 791464c-71479,0 -208806,-133459 -208806,-316039 0,-182581 137337,-316040 208806,-316040 35734,0 77471,82774 77471,316040 -9,233276 -41737,316039 -77471,316039z"/>
   <path class="fil0" d="M2435920 1286049l-425718 -212865c-39378,-19690 -87247,-3729 -106926,35639 -19690,39368 -3730,87236 35638,106916l425718 212864c11443,5728 23611,8437 35586,8437 29230,0 57378,-16140 71341,-44075 19678,-39358 3718,-87238 -35639,-106916z"/>
   <path class="fil0" d="M1974606 372283c11975,0 24132,-2709 35575,-8426l425728 -212854c39368,-19690 55328,-67548 35650,-106926 -19680,-39369 -67548,-55317 -106916,-35639l-425729 212854c-39368,19690 -55327,67548 -35649,106926 13963,27924 42121,44065 71341,44065z"/>
   <path class="fil0" d="M2400281 638828l-355471 0c-44022,0 -79693,35681 -79693,79693 0,44011 35671,79692 79693,79692l355471 0c44022,0 79693,-35681 79693,-79692 0,-44012 -35671,-79693 -79693,-79693z"/>
</svg>
