<?xml version="1.0"?>
<svg xmlns="http://www.w3.org/2000/svg" height="512px" viewBox="0 -48 384 384" width="512px">
	<g transform="matrix(-1 0 0 1 384 0)">
		<path d="m55.808594 237.023438 120.832031 48.433593c.40625.167969.824219.308594 1.246094.4375 4.714843 1.457031 9.511719 2.167969 14.265625 2.167969 10.078125 0 19.953125-3.214844 28.359375-9.429688 12-8.855468 19.03125-22.335937 19.472656-37.167968l.007813-.089844c10.769531-64.589844 10.769531-130.09375 0-194.6875l-.007813-.089844c-.433594-14.832031-7.472656-28.300781-19.472656-37.167968-12.382813-9.148438-27.9375-11.796876-42.632813-7.253907-.421875.128907-.832031.273438-1.246094.441407l-120.832031 48.429687c-33.402343 10.59375-55.800781 41.152344-55.800781 76.257813v33.472656c0 35.101562 22.398438 65.660156 55.808594 76.246094zm-23.808594-109.71875c0-21.203126 13.617188-39.640626 33.878906-45.867188.425782-.132812.839844-.277344 1.25-.445312l120.695313-48.375c4.742187-1.296876 9.695312-.371094 13.671875 2.566406 4.136718 3.046875 6.503906 7.742187 6.503906 12.878906 0 .882812.070312 1.761719.214844 2.632812l.210937 1.265626c10.183594 61.101562 10.183594 123.054687 0 184.160156l-.210937 1.261718c-.144532.871094-.214844 1.753907-.214844 2.632813 0 5.136719-2.367188 9.832031-6.496094 12.871094-3.976562 2.9375-8.929687 3.871093-13.671875 2.570312l-120.695312-48.378906c-.410157-.167969-.832031-.3125-1.25-.445313-20.269531-6.21875-33.886719-24.65625-33.886719-45.855468zm0 0" data-original="#000000" class="active-path" data-old_color="#000000" fill="#FFFFFF" />
		<path d="m368 56.039062h-80c-8.832031 0-16 7.167969-16 16 0 8.832032 7.167969 16 16 16h80c8.832031 0 16-7.167968 16-16 0-8.832031-7.167969-16-16-16zm0 0" data-original="#000000" class="active-path" data-old_color="#000000" fill="#FFFFFF" />
		<path d="m368 128.039062h-80c-8.832031 0-16 7.167969-16 16 0 8.832032 7.167969 16 16 16h80c8.832031 0 16-7.167968 16-16 0-8.832031-7.167969-16-16-16zm0 0" data-original="#000000" class="active-path" data-old_color="#000000" fill="#FFFFFF" />
		<path d="m368 200.039062h-80c-8.832031 0-16 7.167969-16 16 0 8.832032 7.167969 16 16 16h80c8.832031 0 16-7.167968 16-16 0-8.832031-7.167969-16-16-16zm0 0" data-original="#000000" class="active-path" data-old_color="#000000" fill="#FFFFFF" />
	</g>
</svg>
