<svg xmlns="http://www.w3.org/2000/svg" xml:space="preserve" width="2480px" height="1856px" version="1.0" style="shape-rendering:geometricPrecision; text-rendering:geometricPrecision; image-rendering:optimizeQuality; fill-rule:evenodd; clip-rule:evenodd" viewBox="0 0 2480001 1856215" xmlns:xlink="http://www.w3.org/1999/xlink">
  <path fill="#FEFEFE" d="M2473128 835282l-120007 -271774c-12884,-29183 -41767,-48005 -73667,-48005l-198890 -1c-44472,0 -80527,36044 -80527,80527l0 126943 -61866 1 0 -104449c0,-44483 -36055,-80527 -80527,-80527l-214396 -1 0 -219732c0,-44483 -36054,-80526 -80527,-80526l-396141 0 0 -76683 396140 0c44472,0 80527,-36055 80527,-80527 0,-44483 -36055,-80527 -80527,-80527l-953312 -1c-44472,0 -80527,36044 -80527,80527 0,44472 36055,80527 80527,80527l396140 1 0 76683 -396140 0c-44472,0 -80527,36043 -80527,80526l0 66934 -176665 0c-44473,0 -80527,36044 -80527,80527l0 432131 -110634 0 0 -432130c0,-44483 -36055,-80526 -80527,-80526 -44472,0 -80528,36054 -80528,80526l0 1025336c0,44483 36054,80527 80527,80527 44472,0 80527,-36044 80527,-80527l0 -432152 110634 0 0 432152c0,44483 36054,80527 80526,80527l312865 0 317900 265869c14495,12122 32769,18757 51666,18757l823008 0c44473,0 80527,-36044 80527,-80527l0 -219516 61868 -2 0 126943c0,44483 36054,80527 80527,80527l198891 1c31900,0 60782,-18822 73667,-48004l120007 -271774c4521,-10243 6861,-21323 6861,-32522l0 -543537c-1,-11188 -2342,-22280 -6873,-32522zm-154183 559083l-91940 208232 -65903 0 0 -126943c0,-44483 -36055,-80526 -80527,-80526l-222922 0c-44472,0 -80526,36043 -80526,80526l0 219517 -713255 1 -317900 -265869c-14495,-12122 -32769,-18757 -51666,-18757l-261564 0 0 -864293 176666 0c44472,0 80527,-36044 80527,-80527l0 -66934 792269 0 0 219753c0,44483 36054,80527 80527,80527l214396 0 0 104449c0,44483 36054,80527 80526,80527l222922 0c44472,0 80527,-36044 80527,-80527l0 -126953 65904 0 91940 208232 -1 509565z"/>
</svg>
