<svg xmlns="http://www.w3.org/2000/svg" xml:space="preserve" width="3000px" height="2563px" version="1.1" style="shape-rendering:geometricPrecision; text-rendering:geometricPrecision; image-rendering:optimizeQuality; fill-rule:evenodd; clip-rule:evenodd" viewBox="0 0 185 158" xmlns:xlink="http://www.w3.org/1999/xlink">
  <path fill="#6A777D" d="M93 144c-5,0 -9,-2 -12,-6 -2,-3 -6,-4 -10,-2 -3,2 -3,7 -1,10 5,8 14,12 23,12 16,0 29,-13 29,-28 0,-16 -13,-29 -29,-29l-84 0c-4,0 -8,3 -8,7 0,4 4,7 8,7l84 0c8,0 14,7 14,15 0,8 -6,14 -14,14zm63 -29c-4,0 -9,-2 -11,-6 -3,-3 -7,-4 -10,-1 -4,2 -4,6 -2,10 5,7 14,12 23,12 16,0 29,-13 29,-29 0,-16 -13,-28 -29,-28l-97 0c-4,0 -7,3 -7,7 0,4 3,7 7,7l97 0c8,0 14,6 14,14 0,8 -6,14 -14,14zm-113 -114l0 0 0 31 18 0c1,0 1,1 1,2 0,0 0,0 0,1l-30 40c0,1 -1,1 -2,0 0,0 0,0 0,0l-30 -40c0,-1 0,-2 1,-2 0,-1 0,-1 0,-1l0 0 18 0 0 -31c0,0 0,-1 1,-1l0 0 22 0c1,0 1,1 1,1zm36 57l74 0c16,0 29,-12 29,-28 0,-16 -13,-29 -29,-29 -9,0 -17,5 -23,13 -2,3 -1,7 2,9 3,3 8,2 10,-1 2,-4 7,-6 11,-6 8,0 15,6 15,14 0,8 -7,14 -15,14l-74 0c-4,0 -8,3 -8,7 0,4 4,7 8,7l0 0z"/>
</svg>
