<?xml version="1.0"?>
<svg xmlns="http://www.w3.org/2000/svg" height="512px" viewBox="0 -48 384.00098 384" width="512px">
	<g>
		<path d="m55.808594 237.023438 120.832031 48.433593c.40625.167969.824219.3125 1.246094.4375 4.714843 1.457031 9.511719 2.167969 14.265625 2.167969 10.078125 0 19.953125-3.214844 28.359375-9.429688 12-8.855468 19.03125-22.335937 19.472656-37.167968l.007813-.089844c10.769531-64.589844 10.769531-130.09375 0-194.6875l-.007813-.085938c-.433594-14.832031-7.472656-28.304687-19.472656-37.167968-12.382813-9.152344-27.945313-11.800782-42.632813-7.257813-.421875.128907-.832031.273438-1.246094.441407l-120.832031 48.429687c-33.402343 10.59375-55.800781 41.152344-55.800781 76.257813v33.472656c0 35.101562 22.398438 65.664062 55.808594 76.246094zm-23.808594-109.71875c0-21.199219 13.617188-39.640626 33.878906-45.863282.425782-.136718.839844-.28125 1.25-.449218l120.695313-48.375c4.742187-1.296876 9.695312-.371094 13.671875 2.566406 4.136718 3.046875 6.503906 7.746094 6.503906 12.878906 0 .882812.070312 1.761719.214844 2.632812l.210937 1.265626c10.183594 61.101562 10.183594 123.054687 0 184.160156l-.210937 1.261718c-.144532.875-.214844 1.753907-.214844 2.632813 0 5.136719-2.367188 9.832031-6.496094 12.871094-3.976562 2.9375-8.929687 3.875-13.671875 2.570312l-120.695312-48.378906c-.410157-.167969-.832031-.308594-1.25-.445313-20.269531-6.21875-33.886719-24.65625-33.886719-45.855468zm0 0" data-original="#000000" class="active-path" data-old_color="#000000" fill="#FFFFFF" />
		<path d="m373.945312 73.183594-80-32c-8.191406-3.253906-17.511718.710937-20.800781 8.914062-3.28125 8.207032.703125 17.511719 8.910157 20.804688l80 32c1.953124.777344 3.960937 1.152344 5.9375 1.152344 6.34375 0 12.351562-3.816407 14.855468-10.0625 3.289063-8.214844-.695312-17.519532-8.902344-20.808594zm0 0" data-original="#000000" class="active-path" data-old_color="#000000" fill="#FFFFFF" />
		<path d="m373.945312 145.183594-80-32c-8.191406-3.253906-17.511718.710937-20.800781 8.914062-3.28125 8.207032.703125 17.511719 8.910157 20.804688l80 32c1.953124.777344 3.960937 1.152344 5.9375 1.152344 6.34375 0 12.351562-3.816407 14.855468-10.0625 3.289063-8.214844-.695312-17.519532-8.902344-20.808594zm0 0" data-original="#000000" class="active-path" data-old_color="#000000" fill="#FFFFFF" />
		<path d="m373.945312 217.183594-80-32c-8.191406-3.246094-17.511718.71875-20.800781 8.914062-3.28125 8.207032.703125 17.511719 8.910157 20.804688l80 32c1.953124.777344 3.960937 1.152344 5.9375 1.152344 6.34375 0 12.351562-3.816407 14.855468-10.0625 3.289063-8.214844-.695312-17.519532-8.902344-20.808594zm0 0" data-original="#000000" class="active-path" data-old_color="#000000" fill="#FFFFFF" />
	</g>
</svg>
