<svg xmlns="http://www.w3.org/2000/svg" xml:space="preserve" width="135.467mm" height="79.3752mm" version="1.1" style="shape-rendering:geometricPrecision; text-rendering:geometricPrecision; image-rendering:optimizeQuality; fill-rule:evenodd; clip-rule:evenodd" viewBox="0 0 13547 7938" xmlns:xlink="http://www.w3.org/1999/xlink">
   <path fill="white" d="M12683 4140c-75,-107 -197,-171 -327,-171 -130,0 -252,64 -327,171 -276,400 -864,1326 -864,1813 0,657 535,1191 1191,1191 657,0 1191,-534 1191,-1191 0,-487 -588,-1413 -864,-1813zm-327 2210c-219,0 -397,-178 -397,-396 3,-122 168,-467 397,-853 229,385 394,731 397,852 0,219 -178,397 -397,397l0 0zm0 0z" data-original="#000000" data-old_color="#000000"/>
   <path fill="white" d="M13150 1588l-2381 0c-78,0 -154,22 -219,65l-1792 1182 0 -851c0,-219 -178,-396 -397,-396l-1985 0 0 -794 1191 0c219,0 397,-178 397,-397 0,-219 -178,-397 -397,-397l-4762 0c-220,0 -397,178 -397,397 0,219 177,397 397,397l1190 0 0 794 -2011 0c-219,0 -396,177 -396,396l0 397 -397 0c-657,0 -1191,534 -1191,1191l0 1587c0,657 534,1191 1191,1191l397 0 0 397c0,656 534,1191 1190,1191l4789 0c657,0 1191,-535 1191,-1191l0 -629 3762 -3737 630 0c219,0 397,-177 397,-397 0,-219 -178,-396 -397,-396l0 0zm-8361 -794l794 0 0 794 -794 0 0 -794zm-3598 4762c-219,0 -397,-178 -397,-397l0 -1587c0,-219 178,-397 397,-397l397 0 0 2381 -397 0zm6890 116c-75,74 -117,175 -117,281l0 794c0,219 -178,397 -397,397l-4789 0c-219,0 -397,-178 -397,-397l0 -4366 5583 0 0 1191c0,146 80,280 209,349 128,70 284,63 406,-18l2309 -1522 505 0 -3312 3291zm0 0z" data-original="#000000" data-old_color="#000000"/>
</svg>
