<svg xmlns="http://www.w3.org/2000/svg" xml:space="preserve" width="5000px" height="6982px" version="1.1" style="shape-rendering:geometricPrecision; text-rendering:geometricPrecision; image-rendering:optimizeQuality; fill-rule:evenodd; clip-rule:evenodd" viewBox="0 0 184 256" xmlns:xlink="http://www.w3.org/1999/xlink">
  <path fill="#6A777D" d="M110 47c0,-26 -22,-47 -48,-47 -26,0 -47,21 -47,47l0 106c-10,12 -15,26 -15,41 0,34 28,62 62,62 35,0 63,-28 63,-62 0,-15 -6,-29 -15,-41l0 -106 0 0zm-48 193c-25,0 -45,-21 -45,-46 0,-12 4,-23 12,-32 2,-1 3,-3 3,-5l0 -110c0,-17 13,-30 30,-30 17,0 31,13 31,30l0 110c0,2 0,4 2,5 8,9 13,20 13,32 0,25 -21,46 -46,46z"/>
  <path fill="#6A777D" d="M76 167l0 -38c0,-8 -6,-14 -14,-14 -7,0 -14,6 -14,14l0 38c-9,5 -15,15 -15,26 0,17 13,30 29,30 17,0 30,-13 30,-30 0,-11 -6,-21 -16,-26z"/>
  <path fill="#6A777D" d="M136 31l39 0c5,0 9,-4 9,-8 0,-5 -4,-9 -9,-9l-39 0c-5,0 -8,4 -8,9 0,4 3,8 8,8z"/>
  <path fill="#6A777D" d="M175 54l-39 0c-5,0 -8,3 -8,8 0,5 3,8 8,8l39 0c5,0 9,-3 9,-8 0,-5 -4,-8 -9,-8z"/>
  <path fill="#6A777D" d="M175 92l-39 0c-5,0 -8,4 -8,9 0,5 3,8 8,8l39 0c5,0 9,-3 9,-8 0,-5 -4,-9 -9,-9z"/>
  <path fill="#6A777D" d="M175 132l-39 0c-5,0 -8,3 -8,8 0,5 3,8 8,8l39 0c5,0 9,-3 9,-8 0,-5 -4,-8 -9,-8z"/>
</svg>
