<svg xmlns="http://www.w3.org/2000/svg" xml:space="preserve" width="10mm" height="10.8011mm" version="1.1" style="shape-rendering:geometricPrecision; text-rendering:geometricPrecision; image-rendering:optimizeQuality; fill-rule:evenodd; clip-rule:evenodd" viewBox="0 0 111 120" xmlns:xlink="http://www.w3.org/1999/xlink">
  <path fill="#FEFEFE" d="M110 56l-54 -54c-2,-2 -5,-2 -7,-2 -2,1 -4,4 -4,6l0 21 -39 0c-3,0 -6,3 -6,6l0 54c0,3 3,6 6,6l39 0 0 21c0,3 2,5 4,6 1,0 1,0 2,0 2,0 3,0 5,-2l54 -54c1,-1 1,-2 1,-4 0,-2 0,-3 -1,-4l0 0zm-53 43l0 -12c0,-4 -2,-6 -6,-6l-39 0 0 -41 39 0c4,0 6,-3 6,-7l0 -12 40 39 -40 39z"/>
</svg>
