<svg xmlns="http://www.w3.org/2000/svg" xml:space="preserve" width="2480px" height="1282px" version="1.0" style="shape-rendering:geometricPrecision; text-rendering:geometricPrecision; image-rendering:optimizeQuality; fill-rule:evenodd; clip-rule:evenodd" viewBox="0 0 2480001 1281753" xmlns:xlink="http://www.w3.org/1999/xlink">
   <path fill="white" d="M1121661 291843l-415741 0 -18 -226801c0,-26300 -15842,-50017 -40148,-60084 -24315,-10068 -52263,-4501 -70880,14099l-575831 575834c-12192,12192 -19043,28736 -19043,45984 0,17247 6851,33792 19051,45983l575850 575833c12444,12444 29075,19051 46002,19051 8376,0 16823,-1622 24870,-4952 24306,-10067 40148,-33783 40148,-60084l0 -226801 415732 1c35926,0 65035,-29119 65035,-65035l0 -568001c9,-35910 -29109,-65027 -65027,-65027zm-65035 568001l-415741 0c-35926,0 -65035,29119 -65035,65035l0 134823 -418846 -418829 418837 -418836 8 134840c0,35917 29119,65035 65035,65035l415733 1 0 437931 9 0z"/>
   <path fill="white" d="M2460949 594891l-575849 -575833c-18600,-18608 -46574,-24175 -70871,-14099 -24307,10067 -40149,33783 -40149,60084l0 226801 -415733 -1c-35926,0 -65035,29119 -65035,65035l0 568001c0,35918 29109,65035 65035,65035l415733 2 18 226800c0,26300 15842,50017 40148,60085 8047,3330 16494,4952 24870,4952 16927,0 33558,-6608 46010,-19052l575832 -575832c12192,-12192 19043,-28737 19043,-45984 0,-17246 -6852,-33802 -19052,-45994zm-556790 464820l-8 -134840c0,-35917 -29119,-65035 -65035,-65035l-415733 0 0 -437931 415732 0c35926,0 65035,-29119 65035,-65035l0 -134814 418846 418828 -418837 418827z"/>
</svg>
